<svg xmlns="http://www.w3.org/2000/svg" viewBox="0 0 1200 680" fill="none">
  <rect width="1200" height="680" fill="#f5f5f5"/>
  <rect x="0" y="0" width="1200" height="36" fill="#fafafa"/>
  <circle cx="18" cy="18" r="6" fill="#ff5f57"/>
  <circle cx="38" cy="18" r="6" fill="#febc2e"/>
  <circle cx="58" cy="18" r="6" fill="#28c840"/>
  <rect x="72" y="12" width="180" height="12" rx="6" fill="#ebebeb"/>
  <rect x="0" y="36" width="200" height="644" fill="#fafafa"/>
  <rect x="16" y="56" width="168" height="28" rx="8" fill="#fff" stroke="#e5e5e5"/>
  <rect x="16" y="96" width="168" height="22" rx="6" fill="#fff"/>
  <rect x="16" y="126" width="168" height="22" rx="6" fill="#f0f0f0"/>
  <rect x="16" y="156" width="168" height="22" rx="6" fill="#fff"/>
  <rect x="220" y="56" width="960" height="80" rx="12" fill="#fff" stroke="#e8e8e8"/>
  <rect x="240" y="72" width="120" height="48" rx="8" fill="#fafafa"/>
  <rect x="380" y="72" width="120" height="48" rx="8" fill="#fafafa"/>
  <rect x="520" y="72" width="120" height="48" rx="8" fill="#f0fdf4" stroke="#bbf7d0"/>
  <rect x="660" y="72" width="120" height="48" rx="8" fill="#fafafa"/>
  <rect x="220" y="152" width="620" height="280" rx="12" fill="#fff" stroke="#e8e8e8"/>
  <path d="M260 380 C340 320 420 260 520 280 S720 220 820 240 S980 180 1060 200" stroke="#16a34a" stroke-width="3" fill="none"/>
  <path d="M260 380 C340 320 420 260 520 280 S720 220 820 240 S980 180 1060 200 L1060 400 L260 400 Z" fill="url(#g)" opacity="0.35"/>
  <rect x="860" y="152" width="320" height="280" rx="12" fill="#fff" stroke="#e8e8e8"/>
  <circle cx="1020" cy="290" r="72" fill="none" stroke="#000" stroke-width="16" stroke-dasharray="120 320"/>
  <rect x="220" y="452" width="960" height="36" rx="8" fill="#fff" stroke="#e8e8e8"/>
  <defs>
    <linearGradient id="g" x1="260" y1="200" x2="260" y2="400" gradientUnits="userSpaceOnUse">
      <stop stop-color="#16a34a" stop-opacity="0.35"/>
      <stop offset="1" stop-color="#16a34a" stop-opacity="0"/>
    </linearGradient>
  </defs>
</svg>
